<svg width="12" height="13" viewBox="0 0 12 13" fill="none" xmlns="http://www.w3.org/2000/svg">
<g clip-path="url(#clip0_106_1434)">
<path d="M1.50006 3.70492C-1.12057e-05 8.8333 2.63177 8.34354 2.9211 8.07969C3.3551 7.68392 2.9806 6.48274 3.58842 6.15147C4.19622 5.82019 5.12227 7.28864 5.98782 6.80547C6.85335 6.32227 5.90627 5.03387 6.50692 4.51154C7.10757 3.98922 7.88862 4.57829 8.02515 3.70492C8.16167 2.83155 7.38814 3.21034 7.23972 2.38502C7.00012 1.3333 4.86677 1.14951 4.5 1.33331" fill="#D7F2F3"/>
<path d="M7.49976 11.3333C7.03123 10.8538 6.61755 10.2458 6.74875 9.83384C6.94555 9.21594 7.27017 9.25247 7.41172 8.87042C7.55325 8.48834 7.15342 7.94419 8.0406 7.47902C8.63205 7.16889 10.4998 8.08331 10.4802 8.55697" fill="#D7F2F3"/>
<path d="M6 11.3333C8.76143 11.3333 11 9.09473 11 6.3333C11 3.57188 8.76143 1.33331 6 1.33331C3.23857 1.33331 1 3.57188 1 6.3333C1 9.09473 3.23857 11.3333 6 11.3333Z" stroke="#999999" stroke-width="0.75"/>
<path d="M1.5 8.07971C2.15798 8.34356 2.63165 8.34356 2.92098 8.07971C3.35498 7.68394 2.98048 6.48276 3.5883 6.15149C4.1961 5.82021 5.12215 7.28866 5.9877 6.80549C6.85323 6.32229 5.90615 5.03389 6.5068 4.51156C7.10745 3.98924 7.8885 4.57831 8.02503 3.70494C8.16155 2.83157 7.38803 3.21036 7.2396 2.38504C7.14063 1.83484 7.14063 1.54552 7.2396 1.51709" stroke="#999999" stroke-width="0.75" stroke-linecap="round"/>
<path d="M7.25511 11.171C6.78658 10.6915 6.61791 10.2458 6.74911 9.83385C6.94591 9.21595 7.27053 9.25248 7.41208 8.87043C7.55361 8.48835 7.15378 7.9442 8.04096 7.47903C8.63241 7.1689 9.44563 7.52823 10.4806 8.55698" stroke="#999999" stroke-width="0.75" stroke-linecap="round"/>
</g>
<defs>
<clipPath id="clip0_106_1434">
<rect width="12" height="12" fill="white" transform="translate(0 0.333313)"/>
</clipPath>
</defs>
</svg>
