<svg width="64" height="64" viewBox="0 0 64 64" fill="none" xmlns="http://www.w3.org/2000/svg">
<path fill-rule="evenodd" clip-rule="evenodd" d="M29.2437 29C28.0045 29 27 30.0045 27 31.2437C27 31.8546 27.2491 32.4392 27.6899 32.8623L28.1419 33.2963C28.948 34.0701 29.9286 34.5545 30.9533 34.7497C30.7537 36.3218 29.9294 37.5725 28.771 38.2947C27.4425 39.1229 25.5552 39.3276 23.4236 38.3309C22.9233 38.097 22.3281 38.3129 22.0941 38.8132C21.8602 39.3135 22.0761 39.9087 22.5764 40.1427C24.159 40.8826 25.7219 41.1242 27.1432 40.9418L27.7351 44.4932C27.9762 45.9398 29.2277 47 30.6943 47H33.3057C34.7723 47 36.0238 45.9398 36.2649 44.4932L36.8568 40.9418C38.2781 41.1242 39.841 40.8826 41.4236 40.1427C41.9239 39.9087 42.1398 39.3135 41.9059 38.8132C41.6719 38.3129 41.0767 38.097 40.5764 38.3309C38.4448 39.3276 36.5575 39.1229 35.229 38.2947C34.0706 37.5725 33.2463 36.3218 33.0467 34.7497C34.0714 34.5545 35.052 34.0701 35.8581 33.2963L36.3101 32.8623C36.7509 32.4392 37 31.8546 37 31.2437C37 30.0045 35.9955 29 34.7563 29H29.2437ZM34.9206 40.394C34.6618 40.2761 34.4116 40.1419 34.171 39.9919C33.2761 39.434 32.5382 38.6727 32 37.7662C31.4618 38.6727 30.7239 39.434 29.829 39.9919C29.5884 40.1419 29.3382 40.2761 29.0795 40.394L29.7079 44.1644C29.7882 44.6466 30.2054 45 30.6943 45H33.3057C33.7946 45 34.2118 44.6466 34.2921 44.1644L34.9206 40.394Z" fill="black"/>
<path d="M26.5 27C27.3284 27 28 26.3284 28 25.5C28 24.6716 27.3284 24 26.5 24C25.6716 24 25 24.6716 25 25.5C25 26.3284 25.6716 27 26.5 27Z" fill="black"/>
<path d="M39 25.5C39 26.3284 38.3284 27 37.5 27C36.6716 27 36 26.3284 36 25.5C36 24.6716 36.6716 24 37.5 24C38.3284 24 39 24.6716 39 25.5Z" fill="black"/>
<path fill-rule="evenodd" clip-rule="evenodd" d="M16.0199 24.146C16.1432 21.5093 16.8341 19.023 17.9685 16.8278C17.0578 14.5576 16.7411 11.7933 17.2263 9.22837C17.3674 8.48262 18.0046 7.95123 18.7473 8.10762C20.1704 8.40729 22.1586 9.31725 23.425 10.6423C25.8971 8.97109 28.8351 8 32 8C35.1649 8 38.103 8.97109 40.575 10.6423C41.8414 9.31725 43.8296 8.40729 45.2527 8.10762C45.9954 7.95123 46.6326 8.48262 46.7737 9.22837C47.2589 11.7933 46.9422 14.5576 46.0315 16.8278C47.1747 19.0401 47.8676 21.5482 47.9829 24.2079C48.3637 24.2724 48.7444 24.3521 49.1242 24.4476C57.1167 26.4561 61.7024 34.6274 59.4092 42.6542C57.1224 50.6585 48.8424 55.5545 40.8758 53.5524C40.4955 53.4569 40.1226 53.3472 39.7576 53.2241C37.7053 55.5396 35.0085 57 32 57C29.0319 57 26.3665 55.5782 24.3248 53.3163C17.7144 55.4355 10.0859 52.5222 6.25456 46.1276C1.9108 38.8777 4.01623 29.7434 11.1226 25.7899C12.6745 24.9264 14.3328 24.3863 16.0199 24.146ZM32 10C24.3278 10 18 16.654 18 25L18.0001 25.0406L18.0023 25.9667L17.0792 26.0399C15.3572 26.1766 13.6616 26.666 12.0949 27.5376C6.07052 30.8892 4.14977 38.7233 7.97019 45.0997C11.465 50.9325 18.4896 53.3958 24.2876 51.2121L24.9612 50.9584L25.4156 51.5166C27.2207 53.7341 29.5363 55 32 55C34.4985 55 36.8455 53.6978 38.6611 51.4214L39.1218 50.8439L39.8092 51.1145C40.308 51.3109 40.8264 51.4778 41.3633 51.6127C48.2506 53.3436 55.4867 49.1033 57.4862 42.1048C59.4792 35.1287 55.4981 28.1116 48.6367 26.3873C48.056 26.2413 47.4734 26.1378 46.892 26.0748L45.9956 25.9775L45.9998 25.0759L46 25C46 16.654 39.6722 10 32 10Z" fill="black"/>
</svg>
